<?xml version="1.0" encoding="UTF-8" standalone="no"?>
<svg
   xmlns:dc="http://purl.org/dc/elements/1.1/"
   xmlns:cc="http://creativecommons.org/ns#"
   xmlns:rdf="http://www.w3.org/1999/02/22-rdf-syntax-ns#"
   xmlns:svg="http://www.w3.org/2000/svg"
   xmlns="http://www.w3.org/2000/svg"
   xmlns:xlink="http://www.w3.org/1999/xlink"
   xmlns:sodipodi="http://sodipodi.sourceforge.net/DTD/sodipodi-0.dtd"
   xmlns:inkscape="http://www.inkscape.org/namespaces/inkscape"
   version="1.1"
   x="0px"
   y="0px"
   viewBox="0 0 800 600"
   enable-background="new 0 0 800 600"
   xml:space="preserve"
   id="svg26"
   sodipodi:docname="drone-flying.svg"
   inkscape:version="0.92.4 (5da689c313, 2019-01-14)"><metadata
   id="metadata32"><rdf:RDF><cc:Work
       rdf:about=""><dc:format>image/svg+xml</dc:format><dc:type
         rdf:resource="http://purl.org/dc/dcmitype/StillImage" /><dc:title /></cc:Work></rdf:RDF></metadata><defs
   id="defs30">

    <svg id="company-name-wrapper" viewBox="0 0 40 80">
      <text id="company-name" x="0" y="0" fill="#000" alignment-baseline="before-edge">Company name</text>
    </svg>
  <linearGradient
     inkscape:collect="always"
     id="linearGradient4614"><stop
       style="stop-color:#cbffff;stop-opacity:1"
       offset="0"
       id="stop4610" /><stop
       id="stop4618"
       offset="0.82761687"
       style="stop-color:#beffff;stop-opacity:0.7019608" /><stop
       style="stop-color:#edffff;stop-opacity:0"
       offset="1"
       id="stop4612" /></linearGradient><linearGradient
     inkscape:collect="always"
     id="linearGradient4606"><stop
       style="stop-color:#00ffff;stop-opacity:1;"
       offset="0"
       id="stop4602" /><stop
       style="stop-color:#00ffff;stop-opacity:0;"
       offset="1"
       id="stop4604" /></linearGradient><linearGradient
     inkscape:collect="always"
     xlink:href="#linearGradient4606"
     id="linearGradient4608"
     x1="208.08714"
     y1="303.48666"
     x2="208.98601"
     y2="365.0589"
     gradientUnits="userSpaceOnUse" /><linearGradient
     inkscape:collect="always"
     xlink:href="#linearGradient4614"
     id="linearGradient4616"
     x1="214.82863"
     y1="331.8009"
     x2="213.92976"
     y2="349.32877"
     gradientUnits="userSpaceOnUse"
     gradientTransform="translate(0,8)" /><linearGradient
     inkscape:collect="always"
     xlink:href="#linearGradient4606"
     id="linearGradient4630"
     gradientUnits="userSpaceOnUse"
     x1="208.08714"
     y1="303.48666"
     x2="208.98601"
     y2="365.0589"
     gradientTransform="translate(353.7032)" /><linearGradient
     inkscape:collect="always"
     xlink:href="#linearGradient4614"
     id="linearGradient4632"
     gradientUnits="userSpaceOnUse"
     gradientTransform="translate(353.7032,8)"
     x1="214.82863"
     y1="331.8009"
     x2="213.92976"
     y2="349.32877" /></defs><sodipodi:namedview
   pagecolor="#ffffff"
   bordercolor="#666666"
   borderopacity="1"
   objecttolerance="10"
   gridtolerance="10"
   guidetolerance="10"
   inkscape:pageopacity="0"
   inkscape:pageshadow="2"
   inkscape:window-width="1920"
   inkscape:window-height="1001"
   id="namedview28"
   showgrid="false"
   showguides="true"
   inkscape:guide-bbox="true"
   inkscape:zoom="2.2250293"
   inkscape:cx="411.41339"
   inkscape:cy="266.66684"
   inkscape:window-x="-9"
   inkscape:window-y="-9"
   inkscape:window-maximized="1"
   inkscape:current-layer="svg26" /><ellipse
   ry="48.089252"
   rx="14.381833"
   cy="321.46396"
   cx="576.17218"
   id="right-flame"
   style="fill:url(#linearGradient4630);fill-opacity:1;stroke-width:0.92998111;stroke-linecap:round;stroke-linejoin:round" /><ellipse
   style="fill:url(#linearGradient4608);fill-opacity:1;stroke-width:0.92998111;stroke-linecap:round;stroke-linejoin:round"
   id="left-flame"
   cx="222.46898"
   cy="321.46396"
   rx="14.381833"
   ry="48.089252" /><path
   style="fill:#010101"
   inkscape:connector-curvature="0"
   id="path8"
   d="m 578.08,271.2 c -2.62845,-0.43515 -4.07363,-0.53854 -5.759,-0.48 -2.4,-0.48 -3.84,-0.48 -3.84,-0.48 H 463.84 L 452.32,249.6 c -0.96,-1.44 -3.36,-2.88 -5.28,-2.88 h -28.32 c -5.279,-4.8 -11.52,-8.16 -18.72,-8.16 -7.2,0 -13.92,3.36 -18.72,8.16 h -28.32 c -1.92,0 -4.32,1.44 -5.28,2.88 l -11.52,20.64 H 232 c 0,0 -1.44,0 -3.84,0.48 -1.91179,0.28748 -3.65576,0.47827 -6.24,0.96 -7.68,1.44 -16.8,4.32 -16.8,10.08 0,10.08 6.24,27.84 15.36,27.84 9.12,0 11.04,-4.8 11.04,-4.8 l 11.04,-25.92 h 108.96 l 8.16,23.521 c -7.2,7.68 -15.84,19.68 -15.84,31.68 0,22.08 3.84,28.8 3.84,28.8 0,0 3.84,9.601 4.32,-1.439 0.48,-11.04 -3.36,-10.561 -3.36,-28.32 0,-9.12 7.2,-19.2 13.92,-26.88 h 74.4 c 6.72,7.68 13.92,17.76 13.92,26.88 0,17.28 -3.84,16.8 -3.359,28.32 0.479,11.52 4.319,1.439 4.319,1.439 0,0 3.84,-6.72 3.84,-28.8 0,-12 -8.159,-23.521 -15.84,-31.68 L 448,278.88 H 556.96 L 568,304.8 c 0,0 1.44,4.8 11.04,4.8 9.601,0 15.36,-18.24 15.36,-27.84 0,-6.24 -9.12,-9.12 -16.32,-10.56 z"
   sodipodi:nodetypes="cccccscscscccccssccccscssccsccsccccssc" /><path
   style="fill:#010101"
   inkscape:connector-curvature="0"
   id="path12"
   d="m 442.5,350.5 h -85 c -2.2,0 -4,1.8 -4,4 v 22 c 0,2.2 1.8,4 4,4 h 85 c 2.2,0 4,-1.8 4,-4 v -22 c 0,-2.2 -1.8,-4 -4,-4 z" /><path
   style="fill:#010101"
   inkscape:connector-curvature="0"
   id="path14"
   d="m 368.5,338.5 v 11 h 62 v -11 c 0,-2.2 -1.8,-4 -4,-4 h -54 c -2.2,0 -4,1.8 -4,4 z" /><polygon
   style="fill:#010101"
   id="polygon16"
   points="435.055,442.42 364.408,442.42 368.605,484.5 430.856,484.5 " /><polygon
   style="fill:#010101"
   id="polygon20"
   points="441.133,381.5 358.33,381.5 361.381,412.086 438.081,412.086 " />

  <use  x="355" y="435" width="40" height="80" xlink:href="#company-name-wrapper" />

<ellipse
   ry="28.552994"
   rx="8.5392132"
   cy="329.46396"
   cx="222.46898"
   id="left-bright-flame"
   style="fill:url(#linearGradient4616);fill-opacity:1;stroke-width:0.5521763;stroke-linecap:round;stroke-linejoin:round" /><g
   id="g4578"><path
     sodipodi:nodetypes="ccccscccsc"
     inkscape:connector-curvature="0"
     d="m 243.3687,284.11017 c 0,0 5.88709,22.24562 -4.75909,44.49138 m 0,0 c 0,0 -1.43171,-0.38779 -2.2543,-1.43009 -0.79365,-1.00561 -4.36378,-4.1312 -14.21547,-4.1312 -9.8517,0 -12.94442,3.03819 -13.58002,3.99158 -0.63559,0.95339 -2.06568,1.43009 -2.06568,1.43009 -11.12288,-23.83474 -4.21659,-44.35176 -4.21659,-44.35176 0,0 7.94492,-2.38348 20.49789,-2.38348 12.55296,0 20.59326,2.38348 20.59326,2.38348"
     style="fill:#000000;stroke:#000000;stroke-width:1px;stroke-linecap:round;stroke-linejoin:round;stroke-opacity:1"
     id="path4566" /><path
     sodipodi:nodetypes="cscsc"
     inkscape:connector-curvature="0"
     id="path4572"
     d="m 216.89619,325.26483 c 0,0 2.86017,10.16949 5.24364,10.16949 2.38348,0 4.92585,-10.32838 4.92585,-10.32838 0,0 -2.22458,-0.6356 -5.08475,-0.6356 -2.86017,0 -5.08474,0.79449 -5.08474,0.79449 z"
     style="fill:#000000;stroke:#000000;stroke-width:1px;stroke-linecap:butt;stroke-linejoin:miter;stroke-opacity:1" /></g><ellipse
   style="fill:url(#linearGradient4632);fill-opacity:1;stroke-width:0.5521763;stroke-linecap:round;stroke-linejoin:round"
   id="right-bright-flame"
   cx="576.17218"
   cy="329.46396"
   rx="8.5392132"
   ry="28.552994" /><g
   id="g4628"
   transform="translate(353.7032)"><path
     id="path4624"
     style="fill:#000000;stroke:#000000;stroke-width:1px;stroke-linecap:round;stroke-linejoin:round;stroke-opacity:1"
     d="m 243.3687,284.11017 c 0,0 5.88709,22.24562 -4.75909,44.49138 m 0,0 c 0,0 -1.43171,-0.38779 -2.2543,-1.43009 -0.79365,-1.00561 -4.36378,-4.1312 -14.21547,-4.1312 -9.8517,0 -12.94442,3.03819 -13.58002,3.99158 -0.63559,0.95339 -2.06568,1.43009 -2.06568,1.43009 -11.12288,-23.83474 -4.21659,-44.35176 -4.21659,-44.35176 0,0 7.94492,-2.38348 20.49789,-2.38348 12.55296,0 20.59326,2.38348 20.59326,2.38348"
     inkscape:connector-curvature="0"
     sodipodi:nodetypes="ccccscccsc" /><path
     style="fill:#000000;stroke:#000000;stroke-width:1px;stroke-linecap:butt;stroke-linejoin:miter;stroke-opacity:1"
     d="m 216.89619,325.26483 c 0,0 2.86017,10.16949 5.24364,10.16949 2.38348,0 4.92585,-10.32838 4.92585,-10.32838 0,0 -2.22458,-0.6356 -5.08475,-0.6356 -2.86017,0 -5.08474,0.79449 -5.08474,0.79449 z"
     id="path4626"
     inkscape:connector-curvature="0"
     sodipodi:nodetypes="cscsc" /></g></svg>
